/* XPM */
static char *xpm_[] = {
/* columns rows colors chars-per-pixel */
"32 32 103 2 ",
"   c black",
".  c #40310C",
"X  c #40320C",
"o  c #40330D",
"O  c #40350E",
"+  c #40360F",
"@  c #403710",
"#  c #403911",
"$  c #403A11",
"%  c #403C13",
"&  c #403D14",
"*  c #403E14",
"=  c #6C330D",
"-  c #6C340D",
";  c #693C13",
":  c #3F4619",
">  c #3F4A1B",
",  c #3F4A1C",
"<  c #3F4B1C",
"1  c #3F4D1D",
"2  c #3E5A25",
"3  c #664216",
"4  c #654619",
"5  c #6F591C",
"6  c #6E5B1D",
"7  c #6D5D1E",
"8  c #70581B",
"9  c #5F5422",
"0  c #6C5F20",
"q  c #5B7C36",
"w  c #676726",
"e  c #6B6021",
"r  c #646E2B",
"t  c #61732E",
"y  c #607530",
"u  c #C97A2E",
"i  c #DF7126",
"p  c #D0772B",
"a  c #D97328",
"s  c #C07E31",
"d  c #3BB45E",
"f  c #3CB55F",
"g  c #3FB561",
"h  c #42B763",
"j  c #42B764",
"k  c #43B765",
"l  c #45B866",
"z  c #49B969",
"x  c #4ABA6A",
"c  c #4ABA6B",
"v  c #4BBA6B",
"b  c #4DBB6D",
"n  c #4EBB6D",
"m  c #4EBB6E",
"M  c #51BC70",
"N  c #52BD71",
"B  c #53BD72",
"V  c #55BE73",
"C  c #56BE74",
"Z  c #57BF75",
"A  c #58BF76",
"S  c #3FC064",
"D  c #5AC077",
"F  c #5CC179",
"G  c #5EC27B",
"H  c #5FC27C",
"J  c #61C27D",
"K  c #62C37E",
"L  c #64C47F",
"P  c #A98638",
"I  c #D3A635",
"U  c #FFCC4B",
"Y  c #68C583",
"T  c #69C684",
"R  c #6BC685",
"E  c #6DC787",
"W  c #6EC788",
"Q  c #6EC888",
"!  c #70C88A",
"~  c #72C98C",
"^  c #75CA8E",
"/  c #78CB90",
"(  c #78CC90",
")  c #79CC91",
"_  c #7ACC92",
"`  c #7CCD93",
"'  c #7ECE95",
"]  c #7FCE95",
"[  c #7FCE96",
"{  c #82CF98",
"}  c #83D099",
"|  c #85D09B",
" . c #89D29E",
".. c #8BD29F",
"X. c #8CD3A0",
"o. c #A0DAB1",
"O. c #A3DCB3",
"+. c #A7DDB6",
"@. c #AADEB9",
"#. c #ABDFBA",
"$. c #B6E3C3",
"%. c #FFF4D8",
"&. c white",
/* pixels */
"S S S S S S S S S S S S S S S S S S S S S S S S S S S S S S S S ",
"S d d d d d d d d d d d d d d d d d d d d d d d d d d d d d d S ",
"S d d d d d d d d d d d d d d d d d d d d d d d d d d d d d d S ",
"S d d d d d d d d d d d d d d d d d d d d d d d d d d d d d d S ",
"S d d d d d d d d d d d d d ~ W ..M d d d d d d d d d d d d d S ",
"S d d d d d d d d d d d l ` t r 5 7 b G d d d d d d d d d d d S ",
"S d d d d d d d d d d _ 5 7 %.%.%.%.e 7 _ d d d d d d d d d d S ",
"S d d d d d d d d d O.q %.%.U U U U %.%.y F d d d d d d d d d S ",
"S d d d d d d d d Y 8 %.U U U U U U U U %.w J d d d d d d d d S ",
"S d d d d d d d d o.8 U U U   &.U U U U U 5 J d d d d d d d d S ",
"S d d d d d d d d _ 8 U U U     U U U U U 5 G d d d d d d d d S ",
"S d d d d d d d d x 5 U U U     U U U U i i 3 ..d d d d d d d S ",
"S d d d d d d d d L 8 U U U U U U U U i i i i 9 _ d d d d d d S ",
"S d d d d d d d d C + I U U U U U U U I I $ 4 ' d d d d d d d S ",
"S d d d d d d d @...b % I U U U U U U U X E B d d d d d d d d S ",
"S d d d d d d Y 1 . x B . I I I I I I . Y d d d d d d d d d d S ",
"g d d d d d ! @ I I X X I I I I I I I I . | d d d d d d d d d S ",
"S d d d d f Q 8 I I U U U U U U I I I I I $ C d d d d d d d d S ",
"S g d d d d H 8 U U U U U U U U U U U I I . b d d d d d d d d S ",
"S f d d d d b 8 U U U U U U U U U U U U U 8 A d d d d d d d d S ",
"S f d d d d g 8 U U U U U U U U I U U U U 7 x d d d d d d d d S ",
"S f d d d d J < X I U U U U U I I U U U I X A d d d d d d d d S ",
"S d d d d d d T $ . I I I I I I I I I I X X ^ d d d d d d d d S ",
"S d d d d d d d T : . X X X X X . . . . > J d d d d d d d d d S ",
"S d d d d d d d d J 2 X X X X % . . . < K d d d d d d d d d d S ",
"S d d d d d d d d d / X . X X V ; - @.+.d d d d d d d d d d d S ",
"S d d d d d d d d d g Z 3 - J { = = ' f d d d d d d d d d d d S ",
"S d d d d d d d d d d v p i h V - = = } d d d d d d d d d d d S ",
"S d d d d d d d d d d h P P u g ' $.{ g d d d d d d d d d d d S ",
"S d d d d d d d d d d d / G x d f d d d d d d d d d d d d d d S ",
"S d d d d d d d d d d d g g f f f g d d d d d d d d d d d d d S ",
"S S S S S S S S S S S S S S S S S S S g S S S S S S S S S S S S "
};
