/* XPM */
static char *xpm_[] = {
/* columns rows colors chars-per-pixel */
"32 32 194 2 ",
"   c #00327D",
".  c #003E89",
"X  c #004590",
"o  c #004994",
"O  c #004A95",
"+  c #004C97",
"@  c #004E99",
"#  c #004F9A",
"$  c #00509B",
"%  c #00529D",
"&  c #0056A1",
"*  c #0057A2",
"=  c #0059A4",
"-  c #005BA6",
";  c #005CA7",
":  c #005EA9",
">  c #005FAA",
",  c #0060AB",
"<  c #0061AC",
"1  c #0062AD",
"2  c #0063AE",
"3  c #0064AF",
"4  c #0065B0",
"5  c #0066B1",
"6  c #0067B2",
"7  c #0068B3",
"8  c #0069B4",
"9  c #006AB5",
"0  c #006BB6",
"q  c #006CB7",
"w  c #006DB8",
"e  c #006EB9",
"r  c #006FBA",
"t  c #0070BB",
"y  c #0071BC",
"u  c #0072BD",
"i  c #0073BE",
"p  c #0074BF",
"a  c #0075C0",
"s  c #0076C1",
"d  c #0077C2",
"f  c #0078C3",
"g  c #0079C4",
"h  c #007AC5",
"j  c #007BC6",
"k  c #007CC7",
"l  c #007DC8",
"z  c #007EC9",
"x  c #007FCA",
"c  c #0080CB",
"v  c #0081CC",
"b  c #0082CD",
"n  c #0083CE",
"m  c #0084CF",
"M  c #0085D0",
"N  c #0086D1",
"B  c #0087D2",
"V  c #0088D3",
"C  c #0089D4",
"Z  c #008AD5",
"A  c #008BD6",
"S  c #008CD7",
"D  c #008DD8",
"F  c #008ED9",
"G  c #008FDA",
"H  c #0090DB",
"J  c #0091DC",
"K  c #0092DD",
"L  c #0093DE",
"P  c #0094DF",
"I  c #0095E0",
"U  c #0096E1",
"Y  c #0097E2",
"T  c #0098E3",
"R  c #0099E4",
"E  c #009AE5",
"W  c #009BE6",
"Q  c #009CE7",
"!  c #009DE8",
"~  c #009EE9",
"^  c #009FEA",
"/  c #00A0EB",
"(  c #00A1EC",
")  c #00A2ED",
"_  c #00A3EE",
"`  c #00A4EF",
"'  c #00A5F0",
"]  c #00A6F1",
"[  c #00A7F2",
"{  c #00A8F3",
"}  c #01A9F4",
"|  c #02AAF5",
" . c #03ABF6",
".. c #04ACF7",
"X. c #05ADF8",
"o. c #06AEF9",
"O. c #07AFFA",
"+. c #08B0FB",
"@. c #09B1FC",
"#. c #0AB2FD",
"$. c #0BB3FE",
"%. c #0CB4FF",
"&. c #0DB5FF",
"*. c #0EB6FF",
"=. c #0FB7FF",
"-. c #10B8FF",
";. c #11B9FF",
":. c #12BAFF",
">. c #13BBFF",
",. c #14BCFF",
"<. c #15BDFF",
"1. c #16BEFF",
"2. c #17BFFF",
"3. c #18C0FF",
"4. c #19C1FF",
"5. c #1AC2FF",
"6. c #1BC3FF",
"7. c #1CC4FF",
"8. c #1DC5FF",
"9. c #1EC6FF",
"0. c #1FC7FF",
"q. c #20C8FF",
"w. c #21C9FF",
"e. c #22CAFF",
"r. c #23CBFF",
"t. c #24CCFF",
"y. c #25CDFF",
"u. c #26CEFF",
"i. c #27CFFF",
"p. c #28D0FF",
"a. c #29D1FF",
"s. c #2AD2FF",
"d. c #2BD3FF",
"f. c #2CD4FF",
"g. c #2DD5FF",
"h. c #2ED6FF",
"j. c #2FD7FF",
"k. c #30D8FF",
"l. c #31D9FF",
"z. c #33DBFF",
"x. c #34DCFF",
"c. c #35DDFF",
"v. c #36DEFF",
"b. c #37DFFF",
"n. c #38E0FF",
"m. c #39E1FF",
"M. c #3AE2FF",
"N. c #3CE4FF",
"B. c #3DE5FF",
"V. c #3EE6FF",
"C. c #3FE7FF",
"Z. c #40E8FF",
"A. c #41E9FF",
"S. c #42EAFF",
"D. c #43EBFF",
"F. c #44ECFF",
"G. c #45EDFF",
"H. c #46EEFF",
"J. c #47EFFF",
"K. c #48F0FF",
"L. c #49F1FF",
"P. c #4BF3FF",
"I. c #4CF4FF",
"U. c #4DF5FF",
"Y. c #4EF6FF",
"T. c #50F8FF",
"R. c #51F9FF",
"E. c #52FAFF",
"W. c #53FBFF",
"Q. c #56FEFF",
"!. c #57FFFF",
"~. c #59FFFF",
"^. c #5AFFFF",
"/. c #5EFFFF",
"(. c #5FFFFF",
"). c #61FFFF",
"_. c #64FFFF",
"`. c #65FFFF",
"'. c #66FFFF",
"]. c #67FFFF",
"[. c #68FFFF",
"{. c #69FFFF",
"}. c #6CFFFF",
"|. c #6FFFFF",
" X c #70FFFF",
".X c #71FFFF",
"XX c #73FFFF",
"oX c #74FFFF",
"OX c #7FFFFF",
"+X c #85FFFF",
"@X c #86FFFF",
"#X c #88FFFF",
"$X c #8EFFFF",
"%X c #93FFFF",
/* pixels */
"g y.m p / $.p.-./ <.@.@.;.{ [.;.Z R U b 2.g n.F.V $  .-.@ 6.R / ",
"6.y.{ s R = x M { ] C.{ H { Y.i.R F c H ] ^ ( #X@./ y.p.R 3 K M ",
"p..Xp._ K.$.Z q - b c l.c m 6.oX<.0.S Z R 6.R C.n.,.y.l._.l.o.y ",
"| K P H c n.P { V { p b k V g 2.D.<.^ ^ | @.> { P ..r.U s _ l.U ",
"Z b Z c @.^ b t _ y...k.^ ] R r m / K , s i.x - q , x 2.S r y.Q ",
"R K 0.;.^ K.] c X ( S Y.D.%.r.b.^ C.$.b x i.] o U o.F x F. .^ r.",
"r.] R c.] ;.q.;.H V ] b l.] K _.C._.~.0.-.}.j. .%.l.;.9 | D.( | ",
"R y.q | o.M 6.0.p.l.( F ] Z Z b p.{ Q | <.k.I.D.Z.j.0.] K @.R s ",
"R 6.U b r.o.Z F F c.U K y 6 b x M ] m > y x Z ^ t.;.o.( m 0.0.F ",
"K y.c.] k U ( b K s g p.6.R 6 Z ] x F Z V R x x b.%.] K.| g <.x ",
"^ c W..X2.V k x ;.-.M p D.y.] Q [.;...^ ^ ] _ R Z r.Z H @XC.p.K ",
"0.g x 6.oX$XU x ] j. .k 6.U U x y j.c.( F / 6 ( Z %.b r ] j.@XD.",
"| ..a r Z 0.p.^ 7./ y.o.c.] U U Z x R / U y.P g ;.p._ r x ( x n.",
"@.R @.^ b K M Z F.o.Z x P F.q.q.H $.O.q.6.t.<.2 t j.$.P x | b Z ",
"_.2.0.W.$.p.{ F { n.p r q { { oX$.F.@.7.j.c.0.6.S b p.-.$.F.<.] ",
"y 0.| ( 0.( W.i.$.D.0.| S H K U y.F.b 6 x Y.y.y.$.V p.@.U ( D.y.",
"b & o.6.| M c U s b K.}.@.-.R c R F.%.6 _ 3 p.(.( y y ..U S { { ",
"$.g + M <.y.R o.( > t.t.O.I.F.P r 0.W.6.R Q k r./ p m p 3 { R ] ",
"$.y.R % S H M ( r.V c (  .x D.y.2 Q $.@.{ p.M F { ( P y.c 8 Q m ",
"R l.C.( R | ] _ U b Z K 6 Z P ;./ Z ..R K l.0.;./ ..] @X..g { P ",
"Z q o.[.0.R l.l.C.%.<.W.;.<.F.6.-.^ <.k x F R ( -.H c k c.W...P ",
"{ 8 r M C.o.C.;.@.i.p.-.K.p.7./ i.Z .Xo.r <.] $.{ H c 3 q $.k...",
"c.^ b Z 6.| 6 ( ;.K 2 V ^ Z W.U o Z ^ x.U W.Y.0.;.i.n.P _ S y.P ",
"(.F.R c p.(.K 9 ( q.c   g r ;.j.R F Z Q @ x P p.F c %X0.<._ W.$.",
"Z n.<.^ K 6.j.R / l.$.F X ( U i.F.S Z <.F 8 g S $.p y j.{ $.( n.",
"x x K @ y ^ U ( H F.,.,.R ( ( o.q...k 0.7./ s { j./ H b q $ ^ Q ",
"{ K <.^ b b ' 6.@.Z 0.p.o.] M g ( oX..K Z..X{ m +Xp.+.{ ] Z @ Q ",
"<.c.<.;.| g @.( Y.{ x j.$.j...K b W.~.@.c / p.Z p.C.,.D.,.@.R c ",
"{ U p.i.p.^ 0.M x ~.M 6 C.(.y.| g p.^ o.r.M V F 0.c.] K F.r.;.{ ",
"~.7.O.7.k.{ n.-.( ..U 6 Z o.c.j.o.Z 6.6 V <.R ( ( ^ D.<.{ C.<.R ",
"b 0.] Z ( ] b.d.i.).@.M <.= ^ ] 6.M y.2.U o.b ] x ^ r j.( K Z o.",
"F 9 Z ..r ^ o.N.;.<.K.<.~.R o ^ Z 6.{ ).c.Z.g R x x R 6 Z ( ( g "
};
