/* XPM */
static char *xpm_[] = {
/* columns rows colors chars-per-pixel */
"32 32 17 1 ",
"  c #A56C4C",
". c #A76D4D",
"X c #A76E4D",
"o c #A86D4D",
"O c #A86E4C",
"+ c #A96F4E",
"@ c #A96F4F",
"# c #AA6E4E",
"$ c #AE7250",
"% c #AE7350",
"& c #AE7251",
"* c #B07452",
"= c #B27552",
"- c #B57754",
"; c #B77855",
": c #B77955",
"> c #B97A56",
/* pixels */
">>>>>>$*>>>>>>>>>>>>>>>$$>>>>>>>",
">>>>>$+X*>>>>>>>>>>>>>*++$>>>>>>",
">>>>*X;;+$>>>>>>>>>>>*+;;+$>>>>>",
">>>*X;>>;+*>>>>>>>>>$+;>>;+$>>>>",
">>*+->>>>;+*>>>>>>>* ;>>>>-+*>>>",
">*X;>>>>>>- ->>>>>- ->>>>>>;+*>>",
"*X;>>>>>>>>- ->>>- ->>>>>>>>-X*>",
"$+>>>>>>>>>>- ->- ->>>>>>>>>>+$>",
">+$>>>>>>>>>>- - ->>>>>>>>>>$#>>",
">>+$>>>>>>>>>>- ->>>>>>>>>>*+;>>",
">>>+$>>>>>>>>>>->>>>>>>>>>$@>>>>",
">>>;+$>>>>>>>>>>>>>>>>>>>$@>>>>>",
">>>>>#$>>>>>>>>>>>>>>>>>*@>>>>>>",
">>>>>>+$>>>>>>>>>>>>>>>$+>>>>>>>",
">>>>>>>+*;>>>>>>>>>>>>*+;>>>>>>>",
">>>>>>>>+*>>>>>>>>>>>*o;>>>>>>>>",
">>>>>>>;+*>>>>>>>>>>>*o:>>>>>>>>",
">>>>>>>+$>>>>>>>>>>>>>*o>>>>>>>>",
">>>>>>@$>>>>>>>>>>>>>>>$+>>>>>>>",
">>>>>+$>>>>>>>>>>>>>>>>>$+>>>>>>",
">>>>@$>>>>>>>>>>>>>>>>>>>$#>>>>>",
">>>+$>>>>>>>>>>->>>>>>>>>>%#>>>>",
">>+$>>>>>>>>>>- ->>>>>>>>>>$#>>>",
">+$>>>>>>>>>>- - ->>>>>>>>>>$#>>",
"*+>>>>>>>>>>-X->- ;>>>>>>>>>>+$>",
"$+;>>>>>>>>- ->>>-X*>>>>>>>>>O$>",
">*o->>>>>>-X->>>>>;X->>>>>>-+*>>",
">>*o;>>>>- *>>>>>>>*X;>>>>>o$>>>",
">>>*+;>>;X*>>>>>>>>>*+;>>-+*>>>>",
">>>>* ;;X*>>>>>>>>>>>*X;>+$>>>>>",
">>>>>$++$>>>>>>>>>>>>>&++$>>>>>>",
">>>>>>$*>>>>>>>>>>>>>>>$$>>>>>>>"
};
