/* XPM */
static char *xpm_[] = {
/* columns rows colors chars-per-pixel */
"32 32 2 1 ",
"  c #A56C4C",
". c #B97A56",
/* pixels */
"                                ",
" ....... ............... ...... ",
" ....... ............... ...... ",
" ....... ............... ...... ",
" ....... ............... ...... ",
" ....... ............... ...... ",
" ....... ............... ...... ",
" ....... ............... ...... ",
"                                ",
" ........... ............... .. ",
" ........... ............... .. ",
" ........... ............... .. ",
" ........... ............... .. ",
" ........... ............... .. ",
" ........... ............... .. ",
" ........... ............... .. ",
"                                ",
" . .............. ............. ",
" . .............. ............. ",
" . .............. ............. ",
" . .............. ............. ",
" . .............. ............. ",
" . .............. ............. ",
" . .............. ............. ",
"                                ",
" ........... .............. ... ",
" ........... .............. ... ",
" ........... .............. ... ",
" ........... .............. ... ",
" ........... .............. ... ",
" ........... .............. ... ",
"                                "
};
