/* XPM */
static char *xpm_[] = {
/* columns rows colors chars-per-pixel */
"32 32 20 1 ",
"  c gray37",
". c #686364",
"X c #72686B",
"o c #7C6D71",
"O c #867278",
"+ c #8A757C",
"@ c #90777F",
"# c #9A7C85",
"$ c #A4818C",
"% c #A88490",
"& c #AE8693",
"* c #B08794",
"= c #B28996",
"- c #C290A0",
"; c #CC95A6",
": c #D69AAD",
"> c #E09FB4",
", c #EAA4BA",
"< c #F4A9C1",
"1 c #FFAEC8",
/* pixels */
"11111111111111111111111111111111",
"11111111111111111111111111111111",
"11111111111111111111111111111111",
"11111111111111111111111111111111",
"11111111111111111111111111111111",
"11111111111111111111111111111111",
"11111111111111111111111111111111",
"11111111111111111111111111111111",
"11111111111111111111111111111111",
"111111111111#        >1111111111",
"111111111111o       X11111111111",
"11111111111,   ooooo#11111111111",
"11111111111;   >1111111111111111",
"11111111111&  .11111111111111111",
"11111111111@  @11111111111111111",
"11111111111X  .OOOO;111111111111",
"1111111111,        ;111111111111",
"1111111111;        >111111111111",
"1111111111$  X<<<<<1111111111111",
"1111111111O  @111111111111111111",
"1111111111.  *111111111111111111",
"111111111,   +%%%%=1111111111111",
"111111111-        @1111111111111",
"111111111$        $1111111111111",
"111111111>::::::::,1111111111111",
"11111111111111111111111111111111",
"11111111111111111111111111111111",
"11111111111111111111111111111111",
"11111111111111111111111111111111",
"11111111111111111111111111111111",
"11111111111111111111111111111111",
"11111111111111111111111111111111"
};
