/* XPM */
static char *xpm_[] = {
/* columns rows colors chars-per-pixel */
"32 32 5 1 ",
"  c #A56C4C",
". c #AE7251",
"X c #B07452",
"o c #B57754",
"O c #B97A56",
/* pixels */
"OOOOOOX.OOOOOOOOOOOOOOOO.XOOOOOO",
"OOOOOX  .OOOOOOOOOOOOOO.  XOOOOO",
"OOOOX    .OOOOOOOOOOOO.    XOOOO",
"OOOX  Xo  .OOOOOOOOOO.  oX  XOOO",
"OOX  XOOo  .OOOOOOOO.  oOOX  XOO",
"OX  XOOOOo  .OOOOOO.  oOOOOX  XO",
"X  XOOOOOOo  .OOOO.  oOOOOOOX  X",
".  oOOOOOOOo  .OO.  oOOOOOOOo  .",
"O.  oOOOOOOOo  ..  oOOOOOOOo  .O",
"OO.  oOOOOOOOo    oOOOOOOOo  .OO",
"OOO.  oOOOOOOOo  oOOOOOOOo  .OOO",
"OOOO.  oOOOOOOOooOOOOOOOo  .OOOO",
"OOOOO.  oOOOOOOOOOOOOOOo  .OOOOO",
"OOOOOO.  oOOOOOOOOOOOOo  .OOOOOO",
"OOOOOOO.  oOOOOOOOOOOo  .OOOOOOO",
"OOOOOOOO.  oOOOOOOOOo  .OOOOOOOO",
"OOOOOOOO.  oOOOOOOOOo  .OOOOOOOO",
"OOOOOOO.  oOOOOOOOOOOo  .OOOOOOO",
"OOOOOO.  oOOOOOOOOOOOOo  .OOOOOO",
"OOOOO.  oOOOOOOOOOOOOOOo  .OOOOO",
"OOOO.  oOOOOOOOooOOOOOOOo  .OOOO",
"OOO.  oOOOOOOOo  oOOOOOOOo  .OOO",
"OO.  oOOOOOOOo    oOOOOOOOo  .OO",
"O.  oOOOOOOOo  ..  oOOOOOOOo  .O",
".  oOOOOOOOo  .OO.  oOOOOOOOo  .",
"X  XOOOOOOo  .OOOO.  oOOOOOOX  X",
"OX  XOOOOo  .OOOOOO.  oOOOOX  XO",
"OOX  XOOo  .OOOOOOOO.  oOOX  XOO",
"OOOX  Xo  .OOOOOOOOOO.  oX  XOOO",
"OOOOX    .OOOOOOOOOOOO.    XOOOO",
"OOOOOX  .OOOOOOOOOOOOOO.  XOOOOO",
"OOOOOOX.OOOOOOOOOOOOOOOO.XOOOOOO"
};
