/* XPM */
static char *xpm_[] = {
/* columns rows colors chars-per-pixel */
"32 32 113 2 ",
"   c #A85627",
".  c #AB5727",
"X  c #A75629",
"o  c #AA5728",
"O  c #B45C29",
"+  c #B05C2C",
"@  c #BA5F2B",
"#  c #A66134",
"$  c #AD6C37",
"%  c #A0713A",
"&  c #B77A39",
"*  c #BD7D3B",
"=  c #C0622C",
"-  c #C7652D",
";  c #C5662F",
":  c #C8672E",
">  c #CA672E",
",  c #CC692E",
"<  c #CE6A30",
"1  c #D76F31",
"2  c #DD7131",
"3  c #DC7132",
"4  c #DC7B37",
"5  c #D37839",
"6  c #E17433",
"7  c #E67633",
"8  c #E97B36",
"9  c #EE7A36",
"0  c #E17E38",
"q  c #EB7838",
"w  c #EF7C38",
"e  c #F17C36",
"r  c #F57E36",
"t  c #F57E37",
"y  c #877740",
"u  c #3BB45E",
"i  c #559D53",
"p  c #569D53",
"a  c #5D9851",
"s  c #5A9F53",
"d  c #7C8244",
"f  c #749049",
"g  c #4FA356",
"h  c #43AF5B",
"j  c #48A858",
"k  c #50A457",
"l  c #5CA155",
"z  c #47B15B",
"x  c #47B35C",
"c  c #47B25D",
"v  c #53B15B",
"b  c #53B15C",
"n  c #53B35E",
"m  c #5FB15B",
"M  c #6CAB56",
"N  c #78A756",
"B  c #78AB55",
"V  c #78AE58",
"C  c #3FC064",
"Z  c #F88037",
"A  c #FA8137",
"S  c #FB8137",
"D  c #F68139",
"F  c #FB8339",
"G  c #FC8339",
"H  c #F8863B",
"J  c #FE873C",
"K  c #F7883C",
"L  c #FC893B",
"P  c #FF8B3B",
"I  c #FF8D3C",
"U  c #FF8E3D",
"Y  c #FF913F",
"T  c #869048",
"R  c #83974C",
"E  c #899A52",
"W  c #A78F45",
"Q  c #AF8A44",
"!  c #AB9449",
"~  c #B79447",
"^  c #B2974A",
"/  c #9DA251",
"(  c #9DA651",
")  c #9DAE55",
"_  c #A9A34E",
"`  c #A6A552",
"'  c #B5A551",
"]  c #B5A653",
"[  c #C58D43",
"{  c #CE9A49",
"}  c #CE9E48",
"|  c #CE9F4D",
" . c #DA9A45",
".. c #FF8C40",
"X. c #E69542",
"o. c #E69E4A",
"O. c #F29441",
"+. c #FF9340",
"@. c #FB9542",
"#. c #FF9641",
"$. c #FF9443",
"%. c #FF9644",
"&. c #F29844",
"*. c #FF9843",
"=. c #FF9844",
"-. c #FF9B46",
";. c #FF9E44",
":. c #FF9F45",
">. c #FC9D47",
",. c #CEA94F",
"<. c #FFA046",
"1. c #F2A24A",
"2. c #F2A54B",
/* pixels */
"C C C C C C C C C C C C C C C C C C C C C C C C C C C C C C C C ",
"C C C C C C C C C C C C C C C C C C C C C C C C C C C C C C C C ",
"C C u u u u u u u u u u u u u u u u u u u u u u u u u u u u C C ",
"C C u u u u u u u u u u u u u u u u u u u u u u u u u u u u C C ",
"C C u u u u u u u u u u u u u u u u u u u u u u u u u u u u C C ",
"C C u u u u u u u u u u u u u u u u u u u u u u u u u u u u C C ",
"C C u u u u u u u u u u u u u u u u u u u u u u u u u u u u C C ",
"C C u u u u u u u u u u u u u u u u u u u u u u u u u u u u C C ",
"C C u u u u u u u u u u u u u u u u u u u u u u u u u u u u C C ",
"C C u u u u u u u u u u u u u u u u u u u u u u u u u u u u C C ",
"C C u u u u u u u u u u u u u u u u u u u u u u u u u u u u C C ",
"C C u u u u u u u x ( } _ B u u u u u u u u u u u u u u u u C C ",
"C C u u u u u u u / U U I I X.M u u u u u u u u u u u u u u C C ",
"C C u u u u x ) ,.2.<.#.#.P F W u u u u u u u u x ( &.~ u u C C ",
"C C u u u m 1.<.:.:.:.;.:.<.@.` b u u u u u u v  .P 0 l u u C C ",
"C C u u b o.=.*.#.#.Y #.Y #.#.*.:.] b u u u x { G e T u u u C C ",
"C C u x | $.+.U U I P P P U U U +.+.%.] V x _ G F 5 h u u u C C ",
"C C u N ....J G P G r S r F A A F D t H K K G F t Q u u u u C C ",
"C C u E q w 9 D :.>.8 7 7 6 6 6 3 1 < ; % f * t F [ u u u u C C ",
"C C u u $ @ : X.O.O.4 , > ; = @ O @ y p u u x 4 A G z u u u C C ",
"C C u u u d # . o o   .   X + ; 1 e ! u u u u a 7 t ^ u u u C C ",
"C C u u u u u u g p a p g h R 2 : W s u u u u u s & 9 h u u C C ",
"C C u u u u u u u u u u u u u j u u u u u u u u u u k h u u C C ",
"C C u u u u u u u u u u u u u u u u u u u u u u u u u u u u C C ",
"C C u u u u u u u u u u u u u u u u u u u u u u u u u u u u C C ",
"C C u u u u u u u u u u u u u u u u u u u u u u u u u u u u C C ",
"C C u u u u u u u u u u u u u u u u u u u u u u u u u u u u C C ",
"C C u u u u u u u u u u u u u u u u u u u u u u u u u u u u C C ",
"C C u u u u u u u u u u u u u u u u u u u u u u u u u u u u C C ",
"C C u u u u u u u u u u u u u u u u u u u u u u u u u u u u C C ",
"C C u u u u u u u u u u u u u u u u u u u u u u u u u u u u C C ",
"C C C C C C C C C C C C C C C C C C C C C C C C C C C C C C C C "
};
