/* XPM */
static char *xpm_[] = {
/* columns rows colors chars-per-pixel */
"32 32 125 2 ",
"   c #1C7A2C",
".  c #217F35",
"X  c #1E822F",
"o  c #1F8431",
"O  c #1E8F39",
"+  c #1A923C",
"@  c #208734",
"#  c #238B37",
"$  c #238E3B",
"%  c #22933D",
"&  c #6B963E",
"*  c #1E9741",
"=  c #1F9842",
"-  c #219741",
";  c #299542",
":  c #239B45",
">  c #2A9B46",
",  c #269F49",
"<  c #2C9D49",
"1  c #379E48",
"2  c #27A04A",
"3  c #2CA34D",
"4  c #31A24D",
"5  c #2EA751",
"6  c #2FA852",
"7  c #31A650",
"8  c #32AB55",
"9  c #36AE58",
"0  c #3FB155",
"q  c #37B05A",
"w  c #3BB45E",
"e  c #3EB761",
"r  c #3FB862",
"t  c #58A14C",
"y  c #47AC53",
"u  c #41B15B",
"i  c #4CB158",
"p  c #59B354",
"a  c #5DBB54",
"s  c #55B15D",
"d  c #53B85A",
"f  c #67A44C",
"g  c #67AD4D",
"h  c #7BAD47",
"j  c #77BA50",
"k  c #7FB851",
"l  c #42BB65",
"z  c #45BE68",
"x  c #7FC14C",
"c  c #76C753",
"v  c #78CA55",
"b  c #47C06A",
"n  c #4AC36D",
"m  c #4EC671",
"M  c #4FC872",
"N  c #52C375",
"B  c #52CB75",
"V  c #57C27A",
"C  c #5CC47F",
"Z  c #56CE79",
"A  c #58CE7B",
"S  c #57D07A",
"D  c #5AD37D",
"F  c #9B8A2E",
"G  c #858F32",
"H  c #8B8F35",
"J  c #978E34",
"K  c #8B9739",
"L  c #AA8F2A",
"P  c #BD9427",
"I  c #B5A432",
"U  c #BDAF36",
"Y  c #A3BA3F",
"T  c #B7B33C",
"R  c #C49A27",
"E  c #CDA228",
"W  c #D0A52A",
"Q  c #C4AD30",
"!  c #D3B935",
"~  c #E2B32E",
"^  c #EDBC2E",
"/  c #F2C12F",
"(  c #EAC634",
")  c #E2C832",
"_  c #FAC730",
"`  c #F1CC32",
"'  c #FDCC31",
"]  c #EAD535",
"[  c #FED433",
"{  c #FFDA35",
"}  c #EEE037",
"|  c #FFE336",
" . c #FFE837",
".. c #FFE239",
"X. c #FEEB39",
"o. c #FFF43C",
"O. c #FFF83D",
"+. c #89AD41",
"@. c #98C045",
"#. c #9DD14C",
"$. c #90D253",
"%. c #A7CE46",
"&. c #ADCE4C",
"*. c #B1CE44",
"=. c #B5CF4D",
"-. c #ADD451",
";. c #C2CD44",
":. c #CED742",
">. c #DADD40",
",. c #D8E843",
"<. c #5DD580",
"1. c #63C986",
"2. c #66CA89",
"3. c #69CB8C",
"4. c #64D587",
"5. c #62DB85",
"6. c #67D78A",
"7. c #6CDB8F",
"8. c #6DCC90",
"9. c #71CF94",
"0. c #76D199",
"q. c #7FD6A2",
"w. c #81D7A4",
"e. c #88DBAB",
"r. c #8DDDB0",
/* pixels */
"w + w S w : 6 3 b w w w b w q q w b b M w # w % b w   8 z D w + ",
"w - q b S w w 6 2 2 l 8 w b 8 6 r q w B 9.w w w . w.w + w m D w ",
"D w 5 8 b 3 2 M w w : b : 2 3 3 q l 2 w z w b 0.w : B w 3 e m + ",
"w w w w m w w 2 M M 8 B w w w 3 8 6 l 8 w e : A w , w : w w w w ",
"l = 5 e D w w 6 w 3 q w B 8.w > n w 3 m w w 8 w M l M w O 5.w w ",
"5.w o 6 4.w r n Z w 3 q w w C w < n 7 w m w w w q b S w = w r.w ",
"9 e.q $ * w 6 r M w 6 w w 8 b w e w w < w l 5 q 8 9 S w % w 2 S ",
"* A e q e e @ q 9 n l w z w 8 b b 8 z w 4 m e 5 l , w w 2 b w   ",
"q * <.l B q.w ; w 3 w w r z 9 r z w w w 5 w N 9 n w w l z w w.w ",
"<.3 r M 2 5 3.e w e 9 7 w r 4 q w V w e 8 8 l r 9 B z 6 Z b 6 n ",
"M 6 , e w 6 e n 9 l l w 7 z w 8 q w N z 8 9 9 9 9 l l 3 7 8 w w ",
"B 3 M e 6 5 l l w z w w 8 e l w a %.>.-.w 4 r w > < l 3 z w - 2 ",
"m e O e q , x c 9 9 N w q w e @.{ [ | { v w w w w w w w % w , 7 ",
"* q 4.w w e +.[ :.9 l w 8 w b &.X.O.O.O.O.o.-.l m N 7 1.w w w @ ",
"e w b e 5 M e ! ' ;.z w 0 $.,.o.X.X. . .X...{ =.8 m w 8 2.w Z w ",
"e q - Z 6 e l k _ ' *.#.} ....{ { [ [ [ [ [ [ [ p z w , l n 8 w ",
"B w % w q , 3 j ' / U U ~ ~ ^ ^ ^ / ^ / X.` / ^ +.w l 3 q w l w ",
"<.u w 9 n w w Y _ T u w f I P R R E E ) } ] P L t r b w 5 l n w ",
"b D z q 9 1.d ( Q y b n z ! ^ W K G F F J H & s q r l w 8 w b M ",
"+ w w z w 4 p h 1 w 7 w l w g h i w w 9 z w w 8 6 3 b w 5 8 r w ",
"w : b w 2.w w C w w w 4 w V w w w w l w w w w z w w 8 b l w w e ",
"S w w b w w 6 l z z w w q w l l w w 9 b w w w z w w 3 q z z q , ",
"6 w r 2 M w w 3 l b w w w q q 9 l b w w n w w 8 n b q w , 8 w w ",
"q 2 S w z w w 3 6 4 b z l w w w 8 9 l w w w z w 3 z 9 n w w w w ",
"= b n w 8 3.w w w w 4 8 l l z w 8 w 4 8 q w r b 9 w 5 n w w Z w ",
"w 3 b b 6 w B z B n 9 w 4 w w l q b w w w 3 w 9 8 b w 3 m B w B ",
"8 + b w 8 r 8 8 w B w w w 8 r l 8 q V w w 8 q w w < q r r 8 l w ",
"w w : q l b w 8 9 n w w w 4 9 b q 8 b w w b w w w A w > r 6 m b ",
"w = w 8 6 r l w 8 w 1.w w 7 3 q n w r b r l b n 3 B w $ w % 3 b ",
"r.w X : 8 - w w 3 w w n N w w 3 w 8 3 l 8 r 8 w w > 9.w 2 w + : ",
"D w w w b w 2 B w , w 5 n w w 8 l w w > w z w ; Z w w w w w 6.w ",
"D e w w 6 6.w w M w n w 3 n n w b w w w 3 b w w 6 S M w w % N 7."
};
