/* XPM */
static char *xpm_[] = {
/* columns rows colors chars-per-pixel */
"32 32 2 1 ",
"  c #3BB45E",
". c #3FC064",
/* pixels */
"................................",
".                              .",
".                              .",
".                              .",
".                              .",
".                              .",
".                              .",
".                              .",
".                              .",
".                              .",
".                              .",
".                              .",
".                              .",
".                              .",
".                              .",
".                              .",
".                              .",
".                              .",
".                              .",
".                              .",
".                              .",
".                              .",
".                              .",
".                              .",
".                              .",
".                              .",
".                              .",
".                              .",
".                              .",
".                              .",
".                              .",
"................................"
};
